PathFileType	3	(X/Y/Z)	squats_2__view2_aligned.trc
DataRate	CameraRate	NumFrames	NumMarkers	Units	OrigDataRate	OrigDataStartFrame	OrigNumFrames
100.0	100.0	9	19	mm	100.0	1473	1550
Frame#	Time	pelvis			neck			head			hip_left			hip_right			knee_left			knee_right			ankle_left			ankle_right			heel_left			heel_right			toe_left			toe_right			shoulder_left			shoulder_right			elbow_left			elbow_right			wrist_left			wrist_right			
		X1	Y1	Z1	X2	Y2	Z2	X3	Y3	Z3	X4	Y4	Z4	X5	Y5	Z5	X6	Y6	Z6	X7	Y7	Z7	X8	Y8	Z8	X9	Y9	Z9	X10	Y10	Z10	X11	Y11	Z11	X12	Y12	Z12	X13	Y13	Z13	X14	Y14	Z14	X15	Y15	Z15	X16	Y16	Z16	X17	Y17	Z17	X18	Y18	Z18	X19	Y19	Z19	
1473	14.72000	-8.553972	575.317364	48.954564	-15.277774	1034.476515	-207.711874	-24.442737	1156.643925	-314.084245	-82.393991	571.332658	43.250228	65.286272	579.302070	54.658931	-155.007095	417.491115	-291.715442	197.685949	406.596511	-261.761759	-123.103243	185.199556	0.566909	173.218574	129.996856	-11.410025	-119.000191	161.224756	50.481902	162.597377	105.968901	37.205020	-130.153279	94.904188	-139.936328	217.282623	12.935439	-136.405612	-178.761465	978.789385	-205.103634	147.946784	1021.220384	-181.677498	-129.021481	717.331393	-282.649457	251.111654	769.812834	-232.111908	67.908985	857.554194	-306.339228	33.683838	839.694464	-310.524163
1474	14.73000	-6.812653	584.359950	49.070108	-14.792125	1044.610178	-207.142776	-24.032534	1167.216567	-313.261425	-80.689428	580.157963	43.439317	67.064347	588.561935	54.700932	-152.292314	419.855080	-289.458312	199.329919	413.755322	-261.314124	-121.166686	185.350926	1.299474	175.756725	136.607207	-10.932040	-117.161165	161.056043	51.064024	165.191818	112.491933	37.679658	-127.948946	95.674579	-139.798405	220.241479	19.929930	-136.240236	-178.181386	988.222238	-204.700400	148.454590	1031.463018	-180.754853	-126.874392	727.096306	-281.946119	251.776629	780.270313	-231.156385	69.596949	867.876883	-306.158632	34.653068	850.424377	-309.920079
1475	14.74000	-5.071334	593.402535	49.185653	-14.306477	1054.743842	-206.573678	-23.622331	1177.789209	-312.438606	-78.984865	588.983268	43.628406	68.842423	597.821800	54.742933	-149.577533	422.219046	-287.201182	200.973888	420.914133	-260.866489	-119.230128	185.502297	2.032038	178.294875	143.217558	-10.454056	-115.322139	160.887329	51.646145	167.786259	119.014964	38.154295	-125.744613	96.444970	-139.660483	223.200335	26.924422	-136.074860	-177.601308	997.655090	-204.297166	148.962395	1041.705652	-179.832208	-124.727302	736.861219	-281.242782	252.441603	790.727792	-230.200863	71.284913	878.199573	-305.978036	35.622297	861.154289	-309.315995
1476	14.75000	-3.330015	602.445120	49.301198	-13.820828	1064.877506	-206.004580	-23.212127	1188.361851	-311.615786	-77.280302	597.808573	43.817496	70.620498	607.081666	54.784934	-146.862753	424.583012	-284.944052	202.617857	428.072945	-260.418853	-117.293571	185.653667	2.764603	180.833026	149.827909	-9.976072	-113.483113	160.718615	52.228267	170.380700	125.537996	38.628933	-123.540281	97.215361	-139.522560	226.159192	33.918913	-135.909485	-177.021230	1007.087943	-203.893931	149.470201	1051.948286	-178.909563	-122.580213	746.626132	-280.539444	253.106578	801.185271	-229.245340	72.972877	888.522262	-305.797441	36.591526	871.884201	-308.711910
1477	14.76000	-1.588695	611.487705	49.416743	-13.335180	1075.011170	-205.435483	-22.801924	1198.934493	-310.792966	-75.575739	606.633878	44.006585	72.398573	616.341531	54.826935	-144.147972	426.946978	-282.686921	204.261827	435.231756	-259.971218	-115.357014	185.805037	3.497167	183.371176	156.438260	-9.498087	-111.644087	160.549901	52.810388	172.975141	132.061028	39.103570	-121.335948	97.985751	-139.384637	229.118048	40.913404	-135.744109	-176.441152	1016.520795	-203.490697	149.978007	1062.190920	-177.986918	-120.433123	756.391045	-279.836106	253.771552	811.642750	-228.289818	74.660841	898.844952	-305.616845	37.560755	882.614114	-308.107826
1478	14.77000	-0.367782	621.127180	48.759063	-13.570697	1086.323693	-204.519916	-23.577449	1210.504872	-309.572370	-74.432633	616.110574	43.523854	73.697271	626.143785	53.994304	-142.627139	429.591227	-279.252918	204.437331	439.557452	-257.657177	-114.580670	185.560179	4.457265	184.579462	158.905804	-8.672757	-110.925368	159.911849	53.562965	174.291309	134.201475	39.818788	-120.263854	98.348009	-139.086102	230.377141	44.217524	-135.799951	-176.742797	1027.381472	-202.527065	150.022079	1073.366173	-177.351330	-120.059030	767.690362	-279.443446	253.063973	822.884159	-228.126119	75.039609	910.204338	-304.882916	37.034166	894.242934	-308.116418
1479	14.78000	0.853131	630.766655	48.101383	-13.806214	1097.636215	-203.604349	-24.352974	1222.075251	-308.351773	-73.289527	625.587270	43.041123	74.995970	635.946040	53.161672	-141.106306	432.235477	-275.818915	204.612836	443.883148	-255.343136	-113.804326	185.315321	5.417363	185.787747	161.373348	-7.847427	-110.206649	159.273796	54.315542	175.607478	136.341922	40.534006	-119.191761	98.710267	-138.787568	231.636233	47.521643	-135.855792	-177.044442	1038.242148	-201.563432	150.066151	1084.541426	-176.715743	-119.684936	778.989680	-279.050785	252.356393	834.125568	-227.962420	75.418378	921.563724	-304.148987	36.507577	905.871754	-308.125010
1480	14.79000	2.074045	640.406130	47.443704	-14.041731	1108.948738	-202.688783	-25.128499	1233.645631	-307.131177	-72.146421	635.063966	42.558392	76.294668	645.748294	52.329040	-139.585474	434.879726	-272.384912	204.788341	448.208844	-253.029095	-113.027982	185.070463	6.377461	186.996033	163.840892	-7.022097	-109.487930	158.635743	55.068119	176.923646	138.482370	41.249224	-118.119668	99.072525	-138.489033	232.895326	50.825763	-135.911634	-177.346087	1049.102825	-200.599800	150.110223	1095.716678	-176.080155	-119.310843	790.288997	-278.658124	251.648814	845.366977	-227.798720	75.797146	932.923110	-303.415059	35.980988	917.500575	-308.133602
1481	14.80000	3.294958	650.045606	46.786024	-14.277248	1120.261261	-201.773216	-25.904024	1245.216010	-305.910581	-71.003315	644.540662	42.075661	77.593367	655.550548	51.496408	-138.064641	437.523976	-268.950908	204.963845	452.534540	-250.715054	-112.251638	184.825605	7.337559	188.204318	166.308436	-6.196767	-108.769211	157.997691	55.820696	178.239814	140.622817	41.964442	-117.047574	99.434783	-138.190498	234.154419	54.129883	-135.967476	-177.647732	1059.963501	-199.636168	150.154295	1106.891931	-175.444567	-118.936750	801.588315	-278.265463	250.941235	856.608387	-227.635021	76.175915	944.282496	-302.681130	35.454398	929.129395	-308.142195
